<?xml version="1.0" encoding="UTF-8" standalone="no"?>
<svg
   viewBox="0 0 100 100"
   width="260"
   height="260"
   version="1.1"
   id="svg8"
   sodipodi:docname="logo-small.svg"
   inkscape:version="1.4.3 (0d15f75042, 2025-12-25)"
   xmlns:inkscape="http://www.inkscape.org/namespaces/inkscape"
   xmlns:sodipodi="http://sodipodi.sourceforge.net/DTD/sodipodi-0.dtd"
   xmlns="http://www.w3.org/2000/svg"
   xmlns:svg="http://www.w3.org/2000/svg">
  <defs
     id="defs8" />
  <sodipodi:namedview
     id="namedview8"
     pagecolor="#ffffff"
     bordercolor="#000000"
     borderopacity="0.25"
     inkscape:showpageshadow="2"
     inkscape:pageopacity="0.0"
     inkscape:pagecheckerboard="0"
     inkscape:deskcolor="#d1d1d1"
     inkscape:zoom="2.2692308"
     inkscape:cx="107.52542"
     inkscape:cy="140.13559"
     inkscape:window-width="2560"
     inkscape:window-height="1391"
     inkscape:window-x="0"
     inkscape:window-y="24"
     inkscape:window-maximized="1"
     inkscape:current-layer="svg8" />
  <!-- Primary (Head) - fill:#e67919 -->
  <g
     style="fill:#e67919"
     id="g1"
     transform="matrix(1.129079,0,0,1.129079,-6.4539684,-6.4673028)">
    <path
       d="m 50.078,80.683 c 0,2.423 5.054,4.591 6.091,4.858 1.036,0.268 0.719,1.449 3.487,0.873 2.767,-0.577 5.756,-3.233 8.605,-6.897 2.849,-3.664 0.764,-6.293 -1.361,-9.082 -2.125,-2.789 -6.731,-6.023 -7.244,-12.28 -0.404,-4.921 3.644,-5.108 5.34,-5.279 1.697,-0.171 4.501,1.974 5.658,1.726 1.106,-0.236 5.764,4.232 6.275,2.632 -0.287,-1.936 0.909,-2.97 2.519,-3.034 1.609,-0.064 2.175,2.573 2.908,3.955 0.903,1.706 1.642,0.505 1.79,-0.926 0.392,-3.814 -0.886,-7.736 -0.235,-10.257 0.366,-1.417 1.371,-1.586 2.881,-3.241 3.978,-4.359 4.026,-10.816 3.131,-13.904 1.031,-1.253 2.394,-1.256 2.598,-8.289 C 92.726,14.505 87.451,8.531 86.038,7.721 84.624,6.91 80.605,7.633 79.555,8.51 78.506,9.387 66.486,19.391 64.996,21.1 63.507,22.81 62.752,23.616 63.556,27.206 60.728,24.559 56.073,22.692 50.078,23.64 44.083,22.692 39.427,24.559 36.6,27.206 37.403,23.616 36.649,22.81 35.159,21.1 33.669,19.391 21.65,9.387 20.6,8.51 19.551,7.633 15.532,6.91 14.118,7.721 12.704,8.531 7.43,14.505 7.634,21.538 c 0.204,7.033 1.567,7.036 2.599,8.289 -0.896,3.088 -0.848,9.545 3.13,13.904 1.511,1.655 2.515,1.824 2.882,3.241 0.651,2.521 -0.628,6.443 -0.235,10.257 0.147,1.431 0.886,2.632 1.79,0.926 0.732,-1.382 1.299,-4.019 2.908,-3.955 1.609,0.064 2.806,1.098 2.519,3.034 0.51,1.6 5.169,-2.868 6.275,-2.632 1.157,0.248 3.96,-1.897 5.657,-1.726 1.697,0.171 5.745,0.358 5.341,5.279 -0.513,6.257 -5.119,9.491 -7.244,12.28 -2.126,2.789 -4.21,5.418 -1.362,9.082 2.849,3.664 5.838,6.32 8.606,6.897 2.768,0.576 2.451,-0.605 3.487,-0.873 1.036,-0.267 6.091,-2.435 6.091,-4.858 0,-2.424 0,-2.424 0,0 z"
       id="path1" />
  </g>
  <!-- Secondary (Chin + Cheeks) - fill:#868383 -->
  <g
     transform="matrix(-1.129079,0,0,1.129079,106.59732,-6.4673028)"
     style="fill:#868383"
     id="g4">
    <path
       d="m 50,86.57 c 2.004,0 6.013,-1.029 6.013,-1.029 1.036,0.268 0.719,1.449 3.487,0.873 0,0 1.417,-0.227 1.543,0.686 0.127,0.913 -0.788,2.934 -3.286,4.4 -2.499,1.466 -5.115,1.372 -7.757,1.401 -2.642,-0.029 -5.258,0.065 -7.757,-1.401 -2.498,-1.466 -3.413,-3.487 -3.286,-4.4 0.126,-0.913 1.543,-0.686 1.543,-0.686 2.768,0.576 2.451,-0.605 3.487,-0.873 0,0 4.009,1.029 6.013,1.029 z"
       transform="matrix(-1,0,0,1,100.127,0)"
       id="path2" />
    <path
       d="m 68.261,79.517 c 2.849,-3.664 0.764,-6.293 -1.361,-9.082 -2.125,-2.789 -6.731,-6.023 -7.244,-12.28 -0.404,-4.921 3.644,-5.108 5.34,-5.279 1.697,-0.171 4.501,1.974 5.658,1.726 1.106,-0.236 5.764,4.232 6.275,2.632 -0.287,-1.936 0.909,-2.97 2.519,-3.034 1.609,-0.064 2.205,2.477 2.908,3.955 1.968,4.138 -0.509,7.592 -2.583,10.737 -2.349,3.56 -11.512,10.625 -11.512,10.625 z"
       id="path3" />
    <path
       d="m 68.261,79.517 c 2.849,-3.664 0.764,-6.293 -1.361,-9.082 -2.125,-2.789 -6.731,-6.023 -7.244,-12.28 -0.404,-4.921 3.644,-5.108 5.34,-5.279 1.697,-0.171 4.501,1.974 5.658,1.726 1.106,-0.236 5.764,4.232 6.275,2.632 -0.287,-1.936 0.909,-2.97 2.519,-3.034 1.609,-0.064 2.205,2.477 2.908,3.955 1.968,4.138 -0.509,7.592 -2.583,10.737 -2.349,3.56 -11.512,10.625 -11.512,10.625 z"
       transform="matrix(-1,0,0,1,100.127,0)"
       id="path4" />
  </g>
  <!-- Features (Tongue + Eyes) -->
  <g
     id="g8"
     transform="matrix(1.129079,0,0,1.129079,-6.4539684,-6.4673028)">
    <path
       d="m 43.987,85.541 c 1.036,-0.267 6.091,-2.435 6.091,-4.858 0,-2.424 0,-2.424 0,0 0,2.423 5.054,4.591 6.091,4.858 0,0 -4.139,1.029 -6.169,1.029 -2.004,0 -6.013,-1.029 -6.013,-1.029 z"
       style="fill:#e8a3ec"
       id="path5" />
    <g
       style="fill:#a9e619"
       id="g7">
      <path
         d="m 60.195,60.954 c -0.268,-0.862 -0.457,-1.791 -0.539,-2.799 -0.404,-4.921 3.644,-5.108 5.34,-5.279 1.697,-0.171 4.501,1.974 5.658,1.726 0,0 -0.687,2.011 -0.25,3.553 0.438,1.541 -0.363,5.196 -5.002,5.196 -4.64,0 -5.207,-2.397 -5.207,-2.397 z"
         transform="matrix(-1,0,0,1,100.127,0)"
         id="path6" />
      <path
         d="m 60.195,60.954 c -0.268,-0.862 -0.457,-1.791 -0.539,-2.799 -0.404,-4.921 3.644,-5.108 5.34,-5.279 1.697,-0.171 4.501,1.974 5.658,1.726 0,0 -0.687,2.011 -0.25,3.553 0.438,1.541 -0.363,5.196 -5.002,5.196 -4.64,0 -5.207,-2.397 -5.207,-2.397 z"
         id="path7" />
    </g>
  </g>
  <!-- Outline - fill:black, translated like in original -->
  <path
     style="fill:#000000;fill-rule:nonzero;stroke-width:1.12908"
     d="M 94.485712,4.0332882 C 90.646843,-0.93465939 86.920883,0.30732748 84.888541,0.98477499 84.549817,1.0976829 84.324001,1.2105908 83.985277,1.2105908 82.74329,1.4364066 79.468961,3.8074724 66.936185,15.21117 l -0.677447,0.56454 c -1.919435,1.693618 -2.70979,3.500144 -3.048514,4.855039 -1.58071,-0.790355 -4.177592,-1.58071 -7.903552,-1.919434 -2.14525,-0.225816 -4.629224,-0.112908 -5.419579,0 -0.790356,0 -3.274329,-0.225816 -5.419579,0 -3.725961,0.338724 -6.322843,1.129079 -7.903553,1.919434 -0.338724,-1.467803 -1.129079,-3.161421 -3.048513,-4.855039 L 32.838,15.21117 C 20.531039,3.8074724 17.25671,1.4364066 16.014724,1.2105908 c -0.225816,0 -0.56454,-0.1129079 -0.903264,-0.22581581 C 13.079118,0.30732748 9.3531576,-0.93465939 5.5142891,4.0332882 1.4496046,9.3399596 -1.5989086,20.969473 2.6915915,26.163236 c 0.4516317,0.451632 0.7903554,0.903263 1.0161712,1.241987 l -0.1129079,0.338724 c -0.1129079,0.225815 -1.9194344,5.645394 1.5807106,12.419868 1.4678027,2.935605 2.9356053,4.2905 4.0646843,5.306671 1.2419873,1.241987 1.8065263,1.693619 1.6936183,4.064685 -0.225816,3.500144 -0.790355,5.87121 -0.790355,5.87121 v 0.451632 c 0,0.338724 0.225816,9.484263 5.645395,16.258737 4.967947,6.209934 8.242276,9.710079 12.306961,11.516605 1.467802,2.70979 4.064684,5.532487 7.000289,7.339014 0.112908,0.112908 0.338724,0.225815 0.677448,0.451631 1.016171,3.274329 4.064684,8.24228 10.16171,8.24228 h 3.387237 c 0,0 1.919434,0 5.306671,-0.112914 6.209935,-0.112904 9.258448,-5.080853 10.161711,-8.242274 0.225816,-0.112908 0.451632,-0.338723 0.564539,-0.338723 2.935606,-1.693619 5.645395,-4.629224 7.113198,-7.339014 4.064684,-1.806526 7.339013,-5.306671 12.306961,-11.516605 5.419579,-6.774474 5.645394,-15.807106 5.645394,-16.258737 v -0.451632 c 0,0 -0.564539,-2.032342 -0.790355,-5.87121 -0.112908,-2.371066 0.338724,-2.822698 1.580711,-4.064685 1.016171,-1.016171 2.483973,-2.483973 4.064684,-5.306671 3.500145,-6.774474 1.580709,-12.194053 1.580709,-12.419868 l -0.56454,-0.338724 c 0.225818,-0.338724 0.56454,-0.790355 1.016175,-1.354895 C 101.59891,20.969473 98.550394,9.3399596 94.485712,4.0332882 Z M 54.290501,96.730668 c -3.274329,0.112914 -5.193764,0.112914 -5.193764,0.112914 -0.677447,-0.112914 -1.806526,-0.112914 -3.387237,-0.112914 -3.387236,0 -5.306671,-2.032339 -6.43575,-3.838865 h 0.451632 c 0.564539,0 1.129079,-0.112908 1.806526,-0.338724 0.56454,-0.225816 1.016171,-0.451631 1.580711,-0.677447 1.129079,0.564539 3.500145,1.354895 7.000289,1.129079 h 1.241987 c 2.822698,0 4.742132,-0.677448 5.758303,-1.129079 0.564539,0.225816 1.129079,0.451631 1.580711,0.677447 0.677447,0.338724 1.467802,0.338724 2.14525,0.338724 -1.241987,1.806526 -3.161422,3.725961 -6.548658,3.838865 z M 50,87.69804 c 0.338724,0.451631 0.677448,0.790355 1.016172,1.016171 0.564539,0.338723 1.354894,0.790355 2.14525,1.241987 -0.903264,0.112907 -1.919435,0.225815 -3.048514,0.112907 h -0.225815 c -1.241987,0.112908 -2.258158,0 -3.048514,-0.112907 0.790356,-0.451632 1.580711,-0.903264 2.14525,-1.241987 C 49.322553,88.488395 49.661277,88.149671 50,87.69804 Z M 95.163159,24.35671 c -1.806526,2.14525 -2.935605,3.838868 -1.919434,5.080855 0.112908,0.112908 0.338724,0.451632 0.790355,0.564539 0.225816,1.693619 0.451632,5.080856 -1.58071,9.032632 -1.241987,2.483974 -2.483974,3.613053 -3.500145,4.629224 -1.467803,1.354895 -2.70979,2.596882 -2.483974,6.322842 0.225816,3.387237 0.677447,5.532487 0.790355,6.209935 -0.903263,-1.016172 -1.806526,-1.919435 -2.483973,-2.822698 -1.806527,-2.483974 -2.822698,-0.677447 -5.532487,1.241987 -2.822698,1.806526 0.225815,2.935605 -3.161421,0.790355 -1.129079,-0.677447 -2.371066,-1.129079 -3.500145,-1.354895 -0.451632,-0.564539 -0.903263,-1.016171 -1.467803,-1.354894 l -0.338724,-0.112908 c -0.338723,-0.112908 -7.451921,-2.258158 -10.500434,2.596881 -0.903263,0.790356 -3.161421,3.387237 -0.225816,8.806816 1.129079,2.032343 3.048513,4.2905 4.85504,6.43575 0.903263,1.129079 1.919434,2.258158 2.709789,3.387237 -0.564539,-0.225815 -1.241987,-0.451631 -1.919434,-0.451631 -4.629224,-0.56454 -3.838868,2.709789 -3.838868,2.709789 0.564539,2.14525 1.354894,1.806527 2.14525,1.129079 0.790355,-0.677447 2.822697,-0.225816 5.193763,0 0.225816,0 0.451631,0 0.564539,-0.112908 0.451632,0.903264 0.677448,1.693619 0.790356,2.483974 -1.016171,0.112908 -2.70979,0.56454 -4.85504,0.451632 -3.274329,-0.112908 -5.306671,1.016171 -5.306671,1.016171 0.677447,3.274329 4.064684,0.677447 6.661566,1.016171 1.241987,0.225816 2.371066,0 3.161421,-0.451632 -1.016171,2.258158 -3.500145,5.306671 -6.548658,7.00029 l -0.225816,0.112908 c 0,0 -2.032342,1.806526 -3.613053,1.129079 -2.371065,-1.016171 -5.419579,-2.596882 -7.000289,-3.613053 -0.56454,-0.338724 -0.903263,-1.580711 -1.129079,-2.70979 V 83.40754 c 1.354895,0.225815 3.048513,0.225815 3.725961,-0.338724 1.129078,-0.790355 1.467802,-3.048513 1.467802,-3.048513 0,0 -1.016171,1.129079 -1.58071,0 -0.677448,-1.129079 0.451631,-3.500145 1.016171,-3.500145 0.451631,0 2.371066,0 1.241987,-2.258158 -1.129079,-2.14525 -6.435751,0 -7.226106,0.225816 C 49.548369,74.149092 44.12879,72.11675 43.112619,74.262 c -1.129079,2.258158 0.790355,2.258158 1.241987,2.258158 0.451631,0 1.58071,2.371066 1.016171,3.500145 -0.677448,1.129079 -1.580711,0 -1.580711,0 0,0 0.225816,2.14525 1.467803,3.048513 0.677447,0.564539 2.483974,0.564539 3.72596,0.338724 v 0.112907 c -0.225815,1.129079 -0.564539,2.371066 -1.129079,2.70979 -1.58071,1.016171 -4.629223,2.596882 -7.000289,3.613053 -1.241987,0.564539 -3.161421,-0.790356 -3.725961,-1.241987 l -0.677447,-0.112908 c -3.048513,-1.806526 -5.532487,-4.742132 -6.43575,-7.00029 0.790355,0.451632 1.806526,0.56454 3.161421,0.451632 2.596882,-0.338724 5.984118,2.258158 6.661566,-1.016171 0,0 -2.032342,-1.129079 -5.306671,-1.016171 -2.14525,0.112908 -3.838869,-0.451632 -4.85504,-0.451632 0.112908,-0.790355 0.338724,-1.58071 0.790355,-2.483974 0.225816,0 0.338724,0.112908 0.56454,0.112908 2.371066,-0.112908 4.403408,-0.677447 5.193763,0 0.790355,0.677448 1.580711,1.016171 2.14525,-1.129079 0,0 0.790355,-3.161421 -3.838868,-2.709789 -0.790356,0.112908 -1.354895,0.225816 -1.919435,0.451631 0.903264,-1.129078 1.806527,-2.258157 2.70979,-3.387236 1.806526,-2.14525 3.725961,-4.403408 4.855039,-6.435751 2.935606,-5.419579 0.677448,-8.01646 -0.225815,-8.806815 -3.048514,-4.967948 -10.274619,-2.70979 -10.500435,-2.596882 l -0.338723,0.112908 c -0.56454,0.338724 -1.016171,0.790355 -1.467803,1.354895 -1.129079,0.225815 -2.371066,0.564539 -3.500145,1.354894 -3.387237,2.14525 -0.451631,1.016171 -3.161421,-0.790355 -2.822697,-1.806526 -3.725961,-3.725961 -5.532487,-1.241987 -0.677447,0.903263 -1.58071,1.919434 -2.483974,2.822698 0.112908,-0.677448 0.677448,-2.935606 0.790356,-6.209935 0.225815,-3.72596 -1.016171,-4.855039 -2.483974,-6.322842 C 10.256421,42.647789 9.1273418,41.405802 7.7724471,38.921828 5.7401049,34.970052 5.8530128,31.582815 6.1917365,29.889197 6.6433681,29.776289 6.8691839,29.550473 6.9820918,29.324657 7.9982628,28.08267 6.8691839,26.50196 5.0626575,24.243802 2.0141441,20.517841 4.1593943,10.694854 7.9982628,5.7269069 10.595145,2.3396697 12.627487,3.0171171 14.434013,3.6945645 c 0.451632,0.1129079 0.903263,0.3387237 1.129079,0.3387237 0.790355,0.3387237 4.177592,2.8226977 15.694198,13.3231318 l 0.677447,0.56454 c 2.822697,2.483973 2.14525,4.855039 2.14525,4.967947 l -1.693618,5.645395 4.064684,-4.177592 c 0,0 1.129079,-1.016171 3.951776,-1.919435 -0.112908,1.016171 -0.564539,2.371066 -1.58071,4.2905 -2.596882,4.967948 -6.322842,12.871501 -4.967948,17.162001 1.354895,4.2905 4.516316,7.113197 4.516316,7.113197 0,0 3.048513,-1.354894 1.806526,-2.935605 -1.354894,-1.693618 -0.903263,-4.967948 -2.709789,-7.226105 -1.806526,-2.258158 -0.225816,-2.258158 1.580711,-6.209935 1.58071,-3.500145 5.532486,-10.048803 5.193763,-12.758592 0.225816,0 0.564539,-0.112908 0.790355,-0.112908 1.919434,-0.225816 4.516316,0 5.080855,0 h 0.225816 c 0.56454,0 3.048513,-0.112908 5.080856,0 0.225815,0 0.564539,0 0.790355,0.112908 -0.338724,2.709789 3.613052,9.258447 5.193763,12.758592 1.806526,3.951777 3.387237,3.951777 1.580711,6.209935 -1.806527,2.258157 -1.354895,5.645394 -2.70979,7.226105 -1.354895,1.693618 1.806526,2.935605 1.806526,2.935605 0,0 3.161422,-2.822697 4.516316,-7.113197 1.354895,-4.2905 -2.371066,-12.194053 -4.967947,-17.162001 -1.016171,-1.919434 -1.467803,-3.274329 -1.580711,-4.2905 2.822698,0.790356 3.838869,1.806527 3.838869,1.806527 l 4.2905,4.742131 -2.032342,-6.097026 c 0,0 -0.677448,-2.483974 2.14525,-4.967947 l 0.677447,-0.56454 C 80.372225,6.8559859 83.759462,4.3720119 84.549817,4.0332882 84.888541,3.9203803 85.340172,3.8074724 85.791804,3.6945645 87.59833,3.130025 89.630672,2.4525776 92.227554,5.7269069 96.066418,10.694854 98.098768,20.630749 95.163159,24.35671 Z M 28.615244,74.298131 c -0.921327,0.07565 -0.74745,-0.268721 -1.642809,-0.602929 -0.631155,-0.235977 -1.10311,-0.04516 -1.332314,0.493408 -0.217911,0.509215 -0.102746,1.151661 0.378242,1.52087 0.46518,0.357917 0.925845,0.634542 1.415865,0.846809 -0.438083,1.054559 -0.693254,2.098957 -0.693254,3.12529 -2.70979,-1.919434 -5.306671,-4.85504 -8.919724,-9.371355 -2.258158,-2.822698 -3.500145,-6.097027 -4.177592,-8.806816 0.564539,-0.338724 1.129079,-1.016171 1.467802,-2.258158 0.790356,-3.500145 3.725961,-2.70979 2.935606,-0.790356 -0.790356,1.919435 0.451631,3.725961 3.048513,1.693619 1.241987,-1.016171 3.048513,-2.483974 4.967947,-3.725961 -0.677447,1.693619 -0.790355,3.613053 -0.338723,5.306671 0.790355,2.935606 3.048513,4.629224 6.322842,4.85504 h 0.677447 c 0.790356,0 1.467803,-0.112908 2.14525,-0.225816 -0.564539,0.677448 -1.129079,1.354895 -1.806526,2.14525 -1.627002,1.917176 -3.252877,3.863708 -4.448572,5.794434 z m 44.056662,2.287514 c 0.51599,-0.215654 0.998107,-0.501312 1.485868,-0.876165 0.480987,-0.369209 0.595025,-1.011655 0.378242,-1.52087 -0.230333,-0.538571 -0.701158,-0.729385 -1.333443,-0.493408 -0.929232,0.347756 -0.705674,0.704545 -1.75233,0.592767 -1.210373,-1.927338 -2.835117,-3.870483 -4.40115,-5.784272 -0.56454,-0.677447 -1.241987,-1.467802 -1.693619,-2.14525 0.677448,0.112908 1.354895,0.225816 2.14525,0.225816 h 0.677448 c 3.274329,-0.112908 5.532487,-1.919434 6.322842,-4.85504 0.451632,-1.693618 0.225816,-3.613052 -0.338724,-5.306671 1.919435,1.241987 3.725961,2.822698 4.967948,3.725961 2.483974,1.919434 3.838868,0.112908 3.048513,-1.693619 -0.790355,-1.919434 2.14525,-2.709789 2.935605,0.790356 0.225816,1.241987 0.790356,1.919434 1.467803,2.258158 -0.903263,2.709789 -2.14525,5.984118 -4.403408,8.806816 -3.613053,4.516315 -6.209934,7.451921 -8.806816,9.371355 0,-1.0173 -0.259688,-2.051537 -0.700029,-3.095934 z M 66.710369,62.293763 c 1.016171,0 1.806527,-1.806526 1.806527,-3.951776 0,-1.693619 -0.451632,-3.048514 -1.129079,-3.613053 1.016171,0.112908 1.919434,0.225816 2.258157,0.338724 1.467803,1.016171 2.371066,3.838868 1.919435,5.87121 -0.451632,1.693619 -1.693619,2.596882 -3.613053,2.70979 -2.709789,0.112908 -4.742132,-0.677448 -5.645395,-2.14525 -0.903263,-1.354895 -0.790355,-3.048514 0.112908,-4.742132 0.790355,-1.354895 2.14525,-1.919434 3.500145,-2.032342 -0.677447,0.564539 -1.129079,2.032342 -1.129079,3.613053 0.112908,2.258157 0.903263,3.951776 1.919434,3.951776 z m -33.420737,0 c 1.016171,0 1.806526,-1.806526 1.806526,-3.951776 0,-1.693619 -0.451631,-3.048514 -1.129079,-3.613053 1.354895,0.112908 2.822698,0.564539 3.500145,2.032342 0.903263,1.693618 1.016171,3.500145 0.225816,4.742132 -0.903263,1.467802 -2.935606,2.258158 -5.645395,2.14525 -1.919434,-0.112908 -3.161421,-1.016171 -3.613053,-2.70979 -0.564539,-2.032342 0.338724,-4.855039 1.919434,-5.87121 0.338724,-0.112908 1.241987,-0.338724 2.258158,-0.338724 -0.677447,0.564539 -1.129079,2.032342 -1.129079,3.613053 0,2.258157 0.790356,3.951776 1.806527,3.951776 z"
     id="path8" />
</svg>
