<?xml version="1.0" encoding="UTF-8" standalone="no"?>
<!-- Created with Inkscape (http://www.inkscape.org/) -->

<svg
   width="218.24185mm"
   height="68.791656mm"
   viewBox="0 0 218.24185 68.791656"
   version="1.1"
   id="svg1"
   xml:space="preserve"
   inkscape:version="1.4.2 (ebf0e940d0, 2025-05-08)"
   sodipodi:docname="logo.svg"
   inkscape:export-filename="logo.png"
   inkscape:export-xdpi="96"
   inkscape:export-ydpi="96"
   xmlns:inkscape="http://www.inkscape.org/namespaces/inkscape"
   xmlns:sodipodi="http://sodipodi.sourceforge.net/DTD/sodipodi-0.dtd"
   xmlns="http://www.w3.org/2000/svg"
   xmlns:svg="http://www.w3.org/2000/svg"><sodipodi:namedview
     id="namedview1"
     pagecolor="#ffffff"
     bordercolor="#000000"
     borderopacity="0.25"
     inkscape:showpageshadow="2"
     inkscape:pageopacity="0.0"
     inkscape:pagecheckerboard="0"
     inkscape:deskcolor="#d1d1d1"
     inkscape:document-units="mm"
     inkscape:zoom="1.0512065"
     inkscape:cx="511.31723"
     inkscape:cy="144.59576"
     inkscape:window-width="2560"
     inkscape:window-height="1391"
     inkscape:window-x="0"
     inkscape:window-y="24"
     inkscape:window-maximized="1"
     inkscape:current-layer="layer2" /><defs
     id="defs1" /><g
     inkscape:groupmode="layer"
     id="layer2"
     inkscape:label="Logo"
     style="display:inline"
     transform="translate(4.0813429,-114.03542)"><g
       transform="matrix(0.78193106,0,0,0.78193106,-8.9746614,109.32545)"
       id="g9"
       inkscape:label="Logo:Colors"
       style="clip-rule:evenodd;display:inline;fill-rule:evenodd;stroke-linejoin:round;stroke-miterlimit:2">
        
        
        
        
        
        
        
    <g
   id="g41"
   inkscape:label="Primary"
   style="fill:#e67919;fill-opacity:1"><path
     d="m 50.078,80.683 c 0,2.423 5.054,4.591 6.091,4.858 1.036,0.268 0.719,1.449 3.487,0.873 2.767,-0.577 5.756,-3.233 8.605,-6.897 2.849,-3.664 0.764,-6.293 -1.361,-9.082 -2.125,-2.789 -6.731,-6.023 -7.244,-12.28 -0.404,-4.921 3.644,-5.108 5.34,-5.279 1.697,-0.171 4.501,1.974 5.658,1.726 1.106,-0.236 5.764,4.232 6.275,2.632 -0.287,-1.936 0.909,-2.97 2.519,-3.034 1.609,-0.064 2.175,2.573 2.908,3.955 0.903,1.706 1.642,0.505 1.79,-0.926 0.392,-3.814 -0.886,-7.736 -0.235,-10.257 0.366,-1.417 1.371,-1.586 2.881,-3.241 3.978,-4.359 4.026,-10.816 3.131,-13.904 1.031,-1.253 2.394,-1.256 2.598,-8.289 C 92.726,14.505 87.451,8.531 86.038,7.721 84.624,6.91 80.605,7.633 79.555,8.51 78.506,9.387 66.486,19.391 64.996,21.1 63.507,22.81 62.752,23.616 63.556,27.206 60.728,24.559 56.073,22.692 50.078,23.64 44.083,22.692 39.427,24.559 36.6,27.206 37.403,23.616 36.649,22.81 35.159,21.1 33.669,19.391 21.65,9.387 20.6,8.51 19.551,7.633 15.532,6.91 14.118,7.721 12.704,8.531 7.43,14.505 7.634,21.538 c 0.204,7.033 1.567,7.036 2.599,8.289 -0.896,3.088 -0.848,9.545 3.13,13.904 1.511,1.655 2.515,1.824 2.882,3.241 0.651,2.521 -0.628,6.443 -0.235,10.257 0.147,1.431 0.886,2.632 1.79,0.926 0.732,-1.382 1.299,-4.019 2.908,-3.955 1.609,0.064 2.806,1.098 2.519,3.034 0.51,1.6 5.169,-2.868 6.275,-2.632 1.157,0.248 3.96,-1.897 5.657,-1.726 1.697,0.171 5.745,0.358 5.341,5.279 -0.513,6.257 -5.119,9.491 -7.244,12.28 -2.126,2.789 -4.21,5.418 -1.362,9.082 2.849,3.664 5.838,6.32 8.606,6.897 2.768,0.576 2.451,-0.605 3.487,-0.873 1.036,-0.267 6.091,-2.435 6.091,-4.858 0,-2.424 0,-2.424 0,0 z"
     style="display:inline;fill:#e67919;fill-opacity:1"
     id="path24"
     inkscape:label="Head" /></g><g
   transform="matrix(-1,0,0,1,100.127,1.4121023e-7)"
   id="g4"
   style="display:inline;clip-rule:evenodd;fill-rule:evenodd;stroke-linejoin:round;stroke-miterlimit:2;fill:#868383;fill-opacity:1"
   inkscape:label="Secondary">
            <path
   d="m 50,86.57 c 2.004,0 6.013,-1.029 6.013,-1.029 1.036,0.268 0.719,1.449 3.487,0.873 0,0 1.417,-0.227 1.543,0.686 0.127,0.913 -0.788,2.934 -3.286,4.4 -2.499,1.466 -5.115,1.372 -7.757,1.401 -2.642,-0.029 -5.258,0.065 -7.757,-1.401 -2.498,-1.466 -3.413,-3.487 -3.286,-4.4 0.126,-0.913 1.543,-0.686 1.543,-0.686 2.768,0.576 2.451,-0.605 3.487,-0.873 0,0 4.009,1.029 6.013,1.029 z"
   style="display:inline;clip-rule:evenodd;fill-rule:evenodd;stroke-linejoin:round;stroke-miterlimit:2;fill:#868383;fill-opacity:1;stroke:none;stroke-opacity:1"
   id="path2"
   inkscape:label="Chin"
   transform="matrix(-1,0,0,1,100.127,0)" /><path
   d="m 68.261,79.517 c 2.849,-3.664 0.764,-6.293 -1.361,-9.082 -2.125,-2.789 -6.731,-6.023 -7.244,-12.28 -0.404,-4.921 3.644,-5.108 5.34,-5.279 1.697,-0.171 4.501,1.974 5.658,1.726 1.106,-0.236 5.764,4.232 6.275,2.632 -0.287,-1.936 0.909,-2.97 2.519,-3.034 1.609,-0.064 2.205,2.477 2.908,3.955 1.968,4.138 -0.509,7.592 -2.583,10.737 -2.349,3.56 -11.512,10.625 -11.512,10.625 z"
   style="fill:#868383;fill-opacity:1"
   id="path4"
   inkscape:label="CheekLeft" /><path
   d="m 68.261,79.517 c 2.849,-3.664 0.764,-6.293 -1.361,-9.082 -2.125,-2.789 -6.731,-6.023 -7.244,-12.28 -0.404,-4.921 3.644,-5.108 5.34,-5.279 1.697,-0.171 4.501,1.974 5.658,1.726 1.106,-0.236 5.764,4.232 6.275,2.632 -0.287,-1.936 0.909,-2.97 2.519,-3.034 1.609,-0.064 2.205,2.477 2.908,3.955 1.968,4.138 -0.509,7.592 -2.583,10.737 -2.349,3.56 -11.512,10.625 -11.512,10.625 z"
   style="display:inline;clip-rule:evenodd;fill-rule:evenodd;stroke-linejoin:round;stroke-miterlimit:2;fill:#868383;fill-opacity:1"
   id="path5"
   inkscape:label="CheakRight"
   transform="matrix(-1,0,0,1,100.127,0)" />
        </g><g
   id="g42"
   inkscape:label="Features"
   style="display:inline;clip-rule:evenodd;fill-rule:evenodd;stroke-linejoin:round;stroke-miterlimit:2"><path
     d="m 43.987,85.541 c 1.036,-0.267 6.091,-2.435 6.091,-4.858 0,-2.424 0,-2.424 0,0 0,2.423 5.054,4.591 6.091,4.858 0,0 -4.139,1.029 -6.169,1.029 -2.004,0 -6.013,-1.029 -6.013,-1.029 z"
     style="display:inline;fill:#e8a3ec;stroke-width:1.00009;stroke-dasharray:none"
     id="path6"
     inkscape:label="Tounge" /><g
     id="g40"
     inkscape:label="Eyes"
     style="fill:#a9e619;fill-opacity:1"><path
       d="m 60.195,60.954 c -0.268,-0.862 -0.457,-1.791 -0.539,-2.799 -0.404,-4.921 3.644,-5.108 5.34,-5.279 1.697,-0.171 4.501,1.974 5.658,1.726 0,0 -0.687,2.011 -0.25,3.553 0.438,1.541 -0.363,5.196 -5.002,5.196 -4.64,0 -5.207,-2.397 -5.207,-2.397 z"
       style="display:inline;clip-rule:evenodd;fill-rule:evenodd;stroke-linejoin:round;stroke-miterlimit:2;fill:#a9e619;fill-opacity:1;stroke-width:1.00009;stroke-dasharray:none"
       id="path7"
       inkscape:label="Left"
       transform="matrix(-1,0,0,1,100.127,1.4121023e-7)" /><path
       d="m 60.195,60.954 c -0.268,-0.862 -0.457,-1.791 -0.539,-2.799 -0.404,-4.921 3.644,-5.108 5.34,-5.279 1.697,-0.171 4.501,1.974 5.658,1.726 0,0 -0.687,2.011 -0.25,3.553 0.438,1.541 -0.363,5.196 -5.002,5.196 -4.64,0 -5.207,-2.397 -5.207,-2.397 z"
       style="display:inline;clip-rule:evenodd;fill-rule:evenodd;stroke-linejoin:round;stroke-miterlimit:2;fill:#a9e619;fill-opacity:1;stroke-width:1.00009;stroke-dasharray:none"
       id="path8"
       inkscape:label="Right" /></g></g><path
   d="m 114.4,17.155 c -3.4,-4.4 -6.7,-3.3 -8.5,-2.7 -0.3,0.1 -0.5,0.2 -0.8,0.2 -1.1,0.2 -4,2.3 -15.1,12.4 l -0.6,0.5 c -1.7,1.5 -2.4,3.1 -2.7,4.3 -1.4,-0.7 -3.7,-1.4 -7,-1.7 -1.9,-0.2 -4.1,-0.1 -4.8,0 -0.7,0 -2.9,-0.2 -4.8,0 -3.3,0.3 -5.6,1 -7,1.7 -0.3,-1.3 -1,-2.8 -2.7,-4.3 l -0.6,-0.5 c -10.9,-10.1 -13.8,-12.2 -14.9,-12.4 -0.2,0 -0.5,-0.1 -0.8,-0.2 -1.8,-0.6 -5.1,-1.7 -8.5,2.7 -3.6,4.7 -6.3,15 -2.5,19.6 0.4,0.4 0.7,0.8 0.9,1.1 l -0.1,0.3 c -0.1,0.2 -1.7,5 1.4,11 1.3,2.6 2.6,3.8 3.6,4.7 1.1,1.1 1.6,1.5 1.5,3.6 -0.2,3.1 -0.7,5.2 -0.7,5.2 v 0.4 c 0,0.3 0.2,8.4 5,14.4 4.4,5.5 7.3,8.6 10.9,10.2 1.3,2.4 3.6,4.9 6.2,6.5 0.1,0.1 0.3,0.2 0.6,0.4 0.9,2.9 3.6,7.3 9,7.3 h 3 c 0,0 1.7,0 4.7,-0.1 5.5,-0.1 8.2,-4.5 9,-7.3 0.2,-0.1 0.4,-0.3 0.5,-0.3 2.6,-1.5 5,-4.1 6.3,-6.5 3.6,-1.6 6.5,-4.7 10.9,-10.2 4.8,-6 5,-14 5,-14.4 v -0.4 c 0,0 -0.5,-1.8 -0.7,-5.2 -0.1,-2.1 0.3,-2.5 1.4,-3.6 0.9,-0.9 2.2,-2.2 3.6,-4.7 3.1,-6 1.4,-10.8 1.4,-11 l -0.5,-0.3 c 0.2,-0.3 0.5,-0.7 0.9,-1.2 3.8,-4.5 1.1,-14.8 -2.5,-19.5 z m -35.6,82.1 c -2.9,0.1 -4.6,0.1 -4.6,0.1 -0.6,-0.1 -1.6,-0.1 -3,-0.1 -3,0 -4.7,-1.8 -5.7,-3.4 h 0.4 c 0.5,0 1,-0.1 1.6,-0.3 0.5,-0.2 0.9,-0.4 1.4,-0.6 1,0.5 3.1,1.2 6.2,1 h 1.1 c 2.5,0 4.2,-0.6 5.1,-1 0.5,0.2 1,0.4 1.4,0.6 0.6,0.3 1.3,0.3 1.9,0.3 -1.1,1.6 -2.8,3.3 -5.8,3.4 z m -3.8,-8 c 0.3,0.4 0.6,0.7 0.9,0.9 0.5,0.3 1.2,0.7 1.9,1.1 -0.8,0.1 -1.7,0.2 -2.7,0.1 h -0.2 c -1.1,0.1 -2,0 -2.7,-0.1 0.7,-0.4 1.4,-0.8 1.9,-1.1 0.3,-0.2 0.6,-0.5 0.9,-0.9 z m 40,-56.1 c -1.6,1.9 -2.6,3.4 -1.7,4.5 0.1,0.1 0.3,0.4 0.7,0.5 0.2,1.5 0.4,4.5 -1.4,8 -1.1,2.2 -2.2,3.2 -3.1,4.1 -1.3,1.2 -2.4,2.3 -2.2,5.6 0.2,3 0.6,4.9 0.7,5.5 -0.8,-0.9 -1.6,-1.7 -2.2,-2.5 -1.6,-2.2 -2.5,-0.6 -4.9,1.1 -2.5,1.6 0.2,2.6 -2.8,0.7 -1,-0.6 -2.1,-1 -3.1,-1.2 -0.4,-0.5 -0.8,-0.9 -1.3,-1.2 l -0.3,-0.1 c -0.3,-0.1 -6.6,-2 -9.3,2.3 -0.8,0.7 -2.8,3 -0.2,7.8 1,1.8 2.7,3.8 4.3,5.7 0.8,1 1.7,2 2.4,3 -0.5,-0.2 -1.1,-0.4 -1.7,-0.4 -4.1,-0.5 -3.4,2.4 -3.4,2.4 0.5,1.9 1.2,1.6 1.9,1 0.7,-0.6 2.5,-0.2 4.6,0 0.2,0 0.4,0 0.5,-0.1 0.4,0.8 0.6,1.5 0.7,2.2 -0.9,0.1 -2.4,0.5 -4.3,0.4 -2.9,-0.1 -4.7,0.9 -4.7,0.9 0.6,2.9 3.6,0.6 5.9,0.9 1.1,0.2 2.1,0 2.8,-0.4 -0.9,2 -3.1,4.7 -5.8,6.2 l -0.2,0.1 c 0,0 -1.8,1.6 -3.2,1 -2.1,-0.9 -4.8,-2.3 -6.2,-3.2 -0.5,-0.3 -0.8,-1.4 -1,-2.4 v -0.1 c 1.2,0.2 2.7,0.2 3.3,-0.3 1,-0.7 1.3,-2.7 1.3,-2.7 0,0 -0.9,1 -1.4,0 -0.6,-1 0.4,-3.1 0.9,-3.1 0.4,0 2.1,0 1.1,-2 -1,-1.9 -5.7,0 -6.4,0.2 -0.7,-0.3 -5.5,-2.1 -6.4,-0.2 -1,2 0.7,2 1.1,2 0.4,0 1.4,2.1 0.9,3.1 -0.6,1 -1.4,0 -1.4,0 0,0 0.2,1.9 1.3,2.7 0.6,0.5 2.2,0.5 3.3,0.3 v 0.1 c -0.2,1 -0.5,2.1 -1,2.4 -1.4,0.9 -4.1,2.3 -6.2,3.2 -1.1,0.5 -2.8,-0.7 -3.3,-1.1 l -0.6,-0.1 c -2.7,-1.6 -4.9,-4.2 -5.7,-6.2 0.7,0.4 1.6,0.5 2.8,0.4 2.3,-0.3 5.3,2 5.9,-0.9 0,0 -1.8,-1 -4.7,-0.9 -1.9,0.1 -3.4,-0.4 -4.3,-0.4 0.1,-0.7 0.3,-1.4 0.7,-2.2 0.2,0 0.3,0.1 0.5,0.1 2.1,-0.1 3.9,-0.6 4.6,0 0.7,0.6 1.4,0.9 1.9,-1 0,0 0.7,-2.8 -3.4,-2.4 -0.7,0.1 -1.2,0.2 -1.7,0.4 0.8,-1 1.6,-2 2.4,-3 1.6,-1.9 3.3,-3.9 4.3,-5.7 2.6,-4.8 0.6,-7.1 -0.2,-7.8 -2.7,-4.4 -9.1,-2.4 -9.3,-2.3 l -0.3,0.1 c -0.5,0.3 -0.9,0.7 -1.3,1.2 -1,0.2 -2.1,0.5 -3.1,1.2 -3,1.9 -0.4,0.9 -2.8,-0.7 -2.5,-1.6 -3.3,-3.3 -4.9,-1.1 -0.6,0.8 -1.4,1.7 -2.2,2.5 0.1,-0.6 0.6,-2.6 0.7,-5.5 0.2,-3.3 -0.9,-4.3 -2.2,-5.6 -0.9,-0.8 -1.9,-1.9 -3.1,-4.1 -1.8,-3.5 -1.7,-6.5 -1.4,-8 0.4,-0.1 0.6,-0.3 0.7,-0.5 0.9,-1.1 -0.1,-2.5 -1.7,-4.5 -2.7,-3.3 -0.8,-12 2.6,-16.4 2.3,-3 4.1,-2.4 5.7,-1.8 0.4,0.1 0.8,0.3 1,0.3 0.7,0.3 3.7,2.5 13.9,11.8 l 0.6,0.5 c 2.5,2.2 1.9,4.3 1.9,4.4 l -1.5,5 3.6,-3.7 c 0,0 1,-0.9 3.5,-1.7 -0.1,0.9 -0.5,2.1 -1.4,3.8 -2.3,4.4 -5.6,11.4 -4.4,15.2 1.2,3.8 4,6.3 4,6.3 0,0 2.7,-1.2 1.6,-2.6 -1.2,-1.5 -0.8,-4.4 -2.4,-6.4 -1.6,-2 -0.2,-2 1.4,-5.5 1.4,-3.1 4.9,-8.9 4.6,-11.3 0.2,0 0.5,-0.1 0.7,-0.1 1.7,-0.2 4,0 4.5,0 h 0.2 c 0.5,0 2.7,-0.1 4.5,0 0.2,0 0.5,0 0.7,0.1 -0.3,2.4 3.2,8.2 4.6,11.3 1.6,3.5 3,3.5 1.4,5.5 -1.6,2 -1.2,5 -2.4,6.4 -1.2,1.5 1.6,2.6 1.6,2.6 0,0 2.8,-2.5 4,-6.3 1.2,-3.8 -2.1,-10.8 -4.4,-15.2 -0.9,-1.7 -1.3,-2.9 -1.4,-3.8 2.5,0.7 3.4,1.6 3.4,1.6 l 3.8,4.2 -1.8,-5.4 c 0,0 -0.6,-2.2 1.9,-4.4 l 0.6,-0.5 c 10.1,-9.3 13.1,-11.5 13.8,-11.8 0.3,-0.1 0.7,-0.2 1.1,-0.3 1.6,-0.5 3.4,-1.1 5.7,1.8 3.4,4.4 5.2,13.2 2.6,16.5 z M 56.06,79.387 c -0.816,0.067 -0.662,-0.238 -1.455,-0.534 -0.559,-0.209 -0.977,-0.04 -1.18,0.437 -0.193,0.451 -0.091,1.02 0.335,1.347 0.412,0.317 0.82,0.562 1.254,0.75 -0.388,0.934 -0.614,1.859 -0.614,2.768 -2.4,-1.7 -4.7,-4.3 -7.9,-8.3 -2,-2.5 -3.1,-5.4 -3.7,-7.8 0.5,-0.3 1,-0.9 1.3,-2 0.7,-3.1 3.3,-2.4 2.6,-0.7 -0.7,1.7 0.4,3.3 2.7,1.5 1.1,-0.9 2.7,-2.2 4.4,-3.3 -0.6,1.5 -0.7,3.2 -0.3,4.7 0.7,2.6 2.7,4.1 5.6,4.3 h 0.6 c 0.7,0 1.3,-0.1 1.9,-0.2 -0.5,0.6 -1,1.2 -1.6,1.9 -1.441,1.698 -2.881,3.422 -3.94,5.132 z m 39.02,2.026 c 0.457,-0.191 0.884,-0.444 1.316,-0.776 0.426,-0.327 0.527,-0.896 0.335,-1.347 -0.204,-0.477 -0.621,-0.646 -1.181,-0.437 -0.823,0.308 -0.625,0.624 -1.552,0.525 -1.072,-1.707 -2.511,-3.428 -3.898,-5.123 -0.5,-0.6 -1.1,-1.3 -1.5,-1.9 0.6,0.1 1.2,0.2 1.9,0.2 h 0.6 c 2.9,-0.1 4.9,-1.7 5.6,-4.3 0.4,-1.5 0.2,-3.2 -0.3,-4.7 1.7,1.1 3.3,2.5 4.4,3.3 2.2,1.7 3.4,0.1 2.7,-1.5 -0.7,-1.7 1.9,-2.4 2.6,0.7 0.2,1.1 0.7,1.7 1.3,2 -0.8,2.4 -1.9,5.3 -3.9,7.8 -3.2,4 -5.5,6.6 -7.8,8.3 0,-0.901 -0.23,-1.817 -0.62,-2.742 z M 89.8,68.755 c 0.9,0 1.6,-1.6 1.6,-3.5 0,-1.5 -0.4,-2.7 -1,-3.2 0.9,0.1 1.7,0.2 2,0.3 1.3,0.9 2.1,3.4 1.7,5.2 -0.4,1.5 -1.5,2.3 -3.2,2.4 -2.4,0.1 -4.2,-0.6 -5,-1.9 -0.8,-1.2 -0.7,-2.7 0.1,-4.2 0.7,-1.2 1.9,-1.7 3.1,-1.8 -0.6,0.5 -1,1.8 -1,3.2 0.1,2 0.8,3.5 1.7,3.5 z m -29.6,0 c 0.9,0 1.6,-1.6 1.6,-3.5 0,-1.5 -0.4,-2.7 -1,-3.2 1.2,0.1 2.5,0.5 3.1,1.8 0.8,1.5 0.9,3.1 0.2,4.2 -0.8,1.3 -2.6,2 -5,1.9 -1.7,-0.1 -2.8,-0.9 -3.2,-2.4 -0.5,-1.8 0.3,-4.3 1.7,-5.2 0.3,-0.1 1.1,-0.3 2,-0.3 -0.6,0.5 -1,1.8 -1,3.2 0,2 0.7,3.5 1.6,3.5 z"
   style="display:inline;clip-rule:evenodd;fill-rule:nonzero;stroke-linejoin:round;stroke-miterlimit:2"
   id="path9"
   inkscape:label="Outline"
   transform="translate(-24.999982,-7.8548614)" /></g><g
       transform="matrix(0.5364136,0,0,0.49779767,29.199264,55.180344)"
       id="g24"
       inkscape:label="Text:Ocelot"
       style="display:inline;clip-rule:evenodd;fill-rule:evenodd;stroke-linejoin:round;stroke-miterlimit:2;fill:#19aae6;fill-opacity:1">
        
        
        
        
        
        <path
   d="m 0.207,-0.522 c 0,-0.019 0,-0.037 0,-0.053 -0.001,-0.016 -0.002,-0.028 -0.003,-0.035 -0.01,0 -0.022,0 -0.037,0.001 -0.015,0.001 -0.03,0.001 -0.047,0.002 -0.017,0.001 -0.034,0.003 -0.051,0.004 -0.017,0.002 -0.033,0.004 -0.048,0.006 10e-4,-0.007 0.003,-0.015 0.004,-0.022 10e-4,-0.007 10e-4,-0.015 10e-4,-0.022 0,-0.007 0,-0.015 -10e-4,-0.022 -0.001,-0.007 -0.003,-0.015 -0.004,-0.022 0.023,0.001 0.043,0.001 0.062,0.002 0.018,0.001 0.037,0.001 0.056,0.001 0.019,0.001 0.039,0.001 0.062,0.001 0.022,0.001 0.049,0.001 0.08,0.001 0.031,0 0.058,0 0.081,-0.001 0.022,0 0.042,0 0.061,-0.001 0.019,0 0.037,0 0.055,-0.001 0.017,-0.001 0.036,-0.001 0.057,-0.002 -0.001,0.007 -0.002,0.015 -0.003,0.022 -0.001,0.007 -0.002,0.015 -0.002,0.022 0,0.007 0.001,0.015 0.002,0.022 0.001,0.007 0.002,0.015 0.003,0.022 C 0.522,-0.599 0.507,-0.601 0.49,-0.603 0.473,-0.604 0.457,-0.606 0.441,-0.607 0.424,-0.608 0.409,-0.608 0.394,-0.609 0.379,-0.61 0.367,-0.61 0.357,-0.61 0.356,-0.607 0.356,-0.602 0.356,-0.596 0.355,-0.59 0.355,-0.583 0.355,-0.575 v 0.303 c 0,0.055 0.001,0.105 0.002,0.147 0.001,0.043 0.003,0.086 0.006,0.127 C 0.352,0.001 0.339,0 0.326,0 H 0.236 C 0.223,0 0.21,0.001 0.199,0.002 0.202,-0.039 0.204,-0.082 0.205,-0.125 0.206,-0.167 0.207,-0.217 0.207,-0.272 Z"
   style="display:inline;clip-rule:evenodd;fill-rule:nonzero;stroke-linejoin:round;stroke-miterlimit:2;fill:#19aae6;fill-opacity:1"
   id="path22"
   inkscape:label="T"
   transform="matrix(73.986698,0,0,79.726002,305.228,179.779)" /><path
   d="M 0.634,-0.362 C 0.634,-0.405 0.629,-0.444 0.618,-0.479 0.607,-0.513 0.592,-0.542 0.574,-0.566 0.555,-0.59 0.532,-0.608 0.505,-0.622 0.478,-0.635 0.448,-0.641 0.416,-0.641 c -0.034,0 -0.064,0.008 -0.091,0.024 -0.027,0.017 -0.05,0.039 -0.069,0.067 -0.019,0.028 -0.033,0.061 -0.042,0.098 -0.01,0.038 -0.015,0.078 -0.015,0.121 0,0.053 0.006,0.098 0.017,0.135 0.011,0.037 0.027,0.066 0.046,0.088 0.019,0.023 0.042,0.039 0.067,0.049 0.025,0.01 0.052,0.015 0.08,0.015 0.03,0 0.059,-0.006 0.086,-0.019 0.027,-0.013 0.051,-0.032 0.072,-0.058 0.02,-0.026 0.036,-0.059 0.049,-0.099 0.012,-0.04 0.018,-0.087 0.018,-0.142 z M 0.035,-0.34 c 0,-0.049 0.009,-0.096 0.028,-0.139 0.018,-0.043 0.044,-0.081 0.077,-0.114 0.033,-0.033 0.074,-0.058 0.121,-0.077 0.047,-0.019 0.1,-0.028 0.158,-0.028 0.053,0 0.103,0.007 0.149,0.022 0.046,0.015 0.086,0.037 0.12,0.066 0.034,0.029 0.061,0.066 0.081,0.111 0.019,0.045 0.029,0.098 0.029,0.158 0,0.05 -0.009,0.097 -0.028,0.14 C 0.751,-0.158 0.724,-0.12 0.691,-0.088 0.657,-0.055 0.617,-0.03 0.57,-0.012 0.523,0.006 0.472,0.015 0.416,0.015 0.363,0.015 0.314,0.008 0.268,-0.005 0.221,-0.018 0.181,-0.039 0.147,-0.068 0.112,-0.096 0.085,-0.133 0.065,-0.179 0.045,-0.224 0.035,-0.277 0.035,-0.34 Z"
   style="display:inline;clip-rule:evenodd;fill-rule:nonzero;stroke-linejoin:round;stroke-miterlimit:2;fill:#19aae6;fill-opacity:1"
   id="path21"
   inkscape:label="O"
   transform="matrix(73.986698,0,0,79.726002,249.303,179.779)" /><path
   d="m 0.089,-0.408 c 0,-0.055 -0.001,-0.105 -0.002,-0.148 -0.001,-0.043 -0.003,-0.086 -0.006,-0.129 0.011,0.001 0.024,0.002 0.037,0.003 0.013,0.001 0.028,0.002 0.045,0.002 0.017,0 0.032,-0.001 0.045,-0.002 0.013,-0.001 0.026,-0.002 0.037,-0.003 -0.003,0.043 -0.005,0.086 -0.006,0.129 -0.001,0.043 -0.002,0.093 -0.002,0.148 v 0.136 c 0,0.038 0,0.075 0.001,0.11 0,0.035 0,0.066 0.001,0.092 0.038,0 0.076,-10e-4 0.114,-0.003 0.038,-0.002 0.076,-0.005 0.115,-0.01 -0.001,0.007 -0.002,0.014 -0.003,0.02 -0.001,0.006 -0.001,0.014 -0.001,0.025 0,0.011 0,0.019 0.001,0.025 0.001,0.006 0.002,0.011 0.003,0.015 C 0.45,0.001 0.428,0.001 0.402,0.001 0.375,0 0.339,0 0.293,0 H 0.135 C 0.12,0 0.108,0 0.101,0.001 c -0.008,0 -0.015,0 -0.02,0.001 0.003,-0.041 0.005,-0.084 0.006,-0.127 0.001,-0.042 0.002,-0.092 0.002,-0.147 z"
   style="display:inline;clip-rule:evenodd;fill-rule:nonzero;stroke-linejoin:round;stroke-miterlimit:2;fill:#19aae6;fill-opacity:1"
   id="path20"
   inkscape:label="L"
   transform="matrix(73.986698,0,0,79.726002,218.015,179.779)" /><path
   d="m 0.08,-0.408 c 0,-0.055 -0.001,-0.105 -0.002,-0.148 -0.001,-0.043 -0.003,-0.086 -0.006,-0.129 0.03,0.001 0.06,0.002 0.089,0.003 0.029,0.001 0.059,0.002 0.089,0.002 0.049,0 0.093,-0.001 0.132,-0.002 0.038,-0.001 0.064,-0.002 0.077,-0.003 -0.003,0.011 -0.004,0.025 -0.004,0.042 0,0.011 0,0.019 0.001,0.025 0.001,0.006 0.002,0.013 0.003,0.02 C 0.44,-0.599 0.419,-0.601 0.396,-0.602 0.373,-0.603 0.35,-0.605 0.329,-0.606 0.307,-0.607 0.287,-0.608 0.27,-0.609 0.253,-0.61 0.24,-0.61 0.233,-0.61 0.23,-0.573 0.229,-0.537 0.229,-0.501 0.228,-0.465 0.228,-0.429 0.228,-0.392 0.271,-0.393 0.311,-0.394 0.346,-0.395 0.381,-0.396 0.417,-0.398 0.455,-0.4 0.453,-0.389 0.452,-0.38 0.451,-0.374 0.45,-0.368 0.45,-0.362 0.45,-0.355 c 0,0.005 0.001,0.011 0.002,0.016 0,0.006 0.002,0.014 0.003,0.025 -0.076,-0.006 -0.152,-0.009 -0.227,-0.009 0,0.021 0,0.043 0,0.064 -0.001,0.021 -0.001,0.043 -0.001,0.064 0,0.043 0.001,0.085 0.003,0.125 0.038,0 0.076,-10e-4 0.114,-0.003 0.038,-0.002 0.076,-0.005 0.115,-0.01 -0.001,0.007 -0.002,0.014 -0.003,0.02 -0.001,0.006 -0.001,0.014 -0.001,0.025 0,0.011 0,0.019 0.001,0.025 0.001,0.006 0.002,0.011 0.003,0.015 C 0.441,0.001 0.419,0.001 0.393,0.001 0.366,0 0.33,0 0.284,0 H 0.126 C 0.111,0 0.099,0 0.092,0.001 c -0.008,0 -0.015,0 -0.02,0.001 0.003,-0.041 0.005,-0.084 0.006,-0.127 0.001,-0.042 0.002,-0.092 0.002,-0.147 z"
   style="display:inline;clip-rule:evenodd;fill-rule:nonzero;stroke-linejoin:round;stroke-miterlimit:2;fill:#19aae6;fill-opacity:1"
   id="path19"
   inkscape:label="E"
   transform="matrix(73.986698,0,0,79.726002,181.549,179.779)" /><path
   d="M 0.63,-0.111 C 0.625,-0.097 0.62,-0.083 0.616,-0.069 0.612,-0.054 0.609,-0.04 0.608,-0.026 0.554,0.001 0.486,0.015 0.404,0.015 0.346,0.015 0.294,0.007 0.249,-0.01 0.203,-0.026 0.164,-0.049 0.133,-0.079 0.101,-0.108 0.077,-0.143 0.06,-0.184 0.043,-0.225 0.035,-0.269 0.035,-0.316 c 0,-0.069 0.011,-0.128 0.033,-0.177 0.021,-0.048 0.05,-0.087 0.087,-0.118 0.036,-0.03 0.078,-0.052 0.126,-0.066 0.048,-0.014 0.098,-0.021 0.151,-0.021 0.017,0 0.036,0.001 0.055,0.004 0.019,0.003 0.038,0.006 0.056,0.01 0.018,0.005 0.035,0.01 0.052,0.016 0.016,0.006 0.03,0.012 0.041,0.019 -0.007,0.017 -0.012,0.033 -0.015,0.05 -0.004,0.017 -0.007,0.035 -0.008,0.052 H 0.599 C 0.574,-0.579 0.548,-0.602 0.521,-0.616 0.494,-0.629 0.463,-0.636 0.427,-0.636 c -0.027,0 -0.053,0.006 -0.08,0.018 -0.027,0.012 -0.052,0.03 -0.074,0.055 -0.022,0.025 -0.04,0.056 -0.053,0.094 -0.014,0.039 -0.021,0.085 -0.021,0.138 0,0.051 0.007,0.095 0.021,0.131 0.014,0.037 0.032,0.067 0.055,0.089 0.022,0.023 0.047,0.04 0.076,0.051 0.028,0.011 0.056,0.016 0.085,0.016 0.016,0 0.032,-0.002 0.049,-0.006 0.017,-0.003 0.033,-0.008 0.049,-0.015 0.016,-0.006 0.031,-0.014 0.046,-0.023 0.014,-0.009 0.026,-0.02 0.037,-0.031 z"
   style="display:inline;clip-rule:evenodd;fill-rule:nonzero;stroke-linejoin:round;stroke-miterlimit:2;fill:#19aae6;fill-opacity:1"
   id="path18"
   inkscape:label="C"
   transform="matrix(73.986698,0,0,79.726002,134.20599,179.779)" /><path
   d="M 0.634,-0.362 C 0.634,-0.405 0.629,-0.444 0.618,-0.479 0.607,-0.513 0.592,-0.542 0.574,-0.566 0.555,-0.59 0.532,-0.608 0.505,-0.622 0.478,-0.635 0.448,-0.641 0.416,-0.641 c -0.034,0 -0.064,0.008 -0.091,0.024 -0.027,0.017 -0.05,0.039 -0.069,0.067 -0.019,0.028 -0.033,0.061 -0.042,0.098 -0.01,0.038 -0.015,0.078 -0.015,0.121 0,0.053 0.006,0.098 0.017,0.135 0.011,0.037 0.027,0.066 0.046,0.088 0.019,0.023 0.042,0.039 0.067,0.049 0.025,0.01 0.052,0.015 0.08,0.015 0.03,0 0.059,-0.006 0.086,-0.019 0.027,-0.013 0.051,-0.032 0.072,-0.058 0.02,-0.026 0.036,-0.059 0.049,-0.099 0.012,-0.04 0.018,-0.087 0.018,-0.142 z M 0.035,-0.34 c 0,-0.049 0.009,-0.096 0.028,-0.139 0.018,-0.043 0.044,-0.081 0.077,-0.114 0.033,-0.033 0.074,-0.058 0.121,-0.077 0.047,-0.019 0.1,-0.028 0.158,-0.028 0.053,0 0.103,0.007 0.149,0.022 0.046,0.015 0.086,0.037 0.12,0.066 0.034,0.029 0.061,0.066 0.081,0.111 0.019,0.045 0.029,0.098 0.029,0.158 0,0.05 -0.009,0.097 -0.028,0.14 C 0.751,-0.158 0.724,-0.12 0.691,-0.088 0.657,-0.055 0.617,-0.03 0.57,-0.012 0.523,0.006 0.472,0.015 0.416,0.015 0.363,0.015 0.314,0.008 0.268,-0.005 0.221,-0.018 0.181,-0.039 0.147,-0.068 0.112,-0.096 0.085,-0.133 0.065,-0.179 0.045,-0.224 0.035,-0.277 0.035,-0.34 Z"
   style="display:inline;clip-rule:evenodd;fill-rule:nonzero;stroke-linejoin:round;stroke-miterlimit:2;fill:#19aae6;fill-opacity:1"
   id="path17"
   inkscape:label="O"
   transform="matrix(73.986698,0,0,79.726002,73.102299,179.779)" />
    </g><g
       id="g30"
       inkscape:label="Text:Hosting"
       transform="translate(0,3.1750001)"
       style="fill:#797676;fill-opacity:1;stroke:#797676;stroke-opacity:1"><path
         style="font-weight:bold;font-size:122.667px;font-family:'URW Classico';-inkscape-font-specification:'URW Classico Bold';clip-rule:evenodd;fill:#797676;fill-rule:evenodd;stroke-width:2.95559;stroke-linejoin:round;stroke-miterlimit:2;fill-opacity:1;stroke:#797676;stroke-opacity:1"
         d="m 813.81862,167.8275 c 1.22667,-6.37869 1.47201,-7.23736 3.55734,-12.75737 -11.16269,-5.27468 -19.74938,-7.36002 -30.78941,-7.36002 -14.84271,0 -28.21341,5.02935 -37.29077,13.98404 -7.72802,7.72802 -11.77603,18.15471 -11.77603,30.91208 0,14.96537 5.64268,26.3734 16.92804,34.34676 8.09603,5.76535 18.89072,8.58669 32.99743,8.58669 9.20002,0 15.2107,-0.98134 31.52542,-4.78401 -0.85867,-4.41602 -0.98134,-6.62402 -0.98134,-16.06938 0,-7.97336 0.24533,-13.49337 0.98134,-18.52272 -4.41602,0.12267 -7.72803,0.24534 -9.93603,0.24534 -2.20801,0 -5.52002,-0.12267 -9.93603,-0.24534 0.61334,8.58669 0.85867,12.6347 0.85867,17.54138 0,4.66135 -0.12267,6.99202 -0.85867,12.38937 -5.27468,1.34934 -7.85069,1.71734 -11.77603,1.71734 -8.58669,0 -15.33338,-2.57601 -20.60806,-7.97336 -6.25601,-6.37868 -9.07735,-14.8427 -9.07735,-27.1094 0,-12.6347 3.312,-22.20273 10.05869,-28.82675 5.39735,-5.52001 12.75737,-8.46402 20.85339,-8.46402 10.05869,0 16.92805,3.68001 23.18406,12.38937 z"
         transform="matrix(0.26458333,0,0,0.26458333,-4.0813514,114.03532)"
         id="path30"
         inkscape:label="G" /><path
         style="font-weight:bold;font-size:122.667px;font-family:'URW Classico';-inkscape-font-specification:'URW Classico Bold';clip-rule:evenodd;fill:#797676;fill-rule:evenodd;stroke-width:2.95559;stroke-linejoin:round;stroke-miterlimit:2;fill-opacity:1;stroke:#797676;stroke-opacity:1"
         d="m 648.83158,234.19034 c 2.33068,-0.24533 4.04801,-0.368 5.27468,-0.368 1.10401,0 2.82134,0.12267 5.15202,0.368 -0.736,-10.54936 -0.98134,-21.95739 -0.98134,-41.33878 0,-7.48268 0,-10.79469 0.24534,-17.90938 33.24275,35.3281 42.56544,45.75479 52.74681,59.24816 2.69867,-0.24533 4.78401,-0.368 6.13335,-0.368 1.22667,0 3.312,0.12267 5.88801,0.368 0.12267,-7.60535 0.12267,-8.09602 0.12267,-9.32269 0,-1.59467 -0.24534,-6.74668 -0.61334,-14.22937 -0.24533,-7.11469 -0.49066,-15.08804 -0.49066,-22.93873 0,-11.40803 0.12266,-14.59737 0.98133,-38.6401 -2.33067,0.24533 -4.04801,0.368 -5.15201,0.368 -1.22667,0 -2.94401,-0.12267 -5.27468,-0.368 0.61333,17.78671 0.98133,31.28008 0.98133,34.34675 0,2.20801 -0.12266,7.23736 -0.368,14.35204 0,1.47201 -0.12267,5.02935 -0.24533,9.6907 -26.37341,-27.60008 -44.40546,-47.71747 -52.37881,-58.38949 -2.69868,0.24533 -4.66135,0.368 -6.01068,0.368 -1.34934,0 -3.43468,-0.12267 -6.01069,-0.368 0.61334,14.8427 0.98134,27.96807 0.98134,41.33877 0,13.37071 -0.49067,35.45077 -0.98134,43.79212 z"
         transform="matrix(0.26458333,0,0,0.26458333,-4.0813514,114.03532)"
         id="path29"
         inkscape:label="N" /><path
         style="font-weight:bold;font-size:122.667px;font-family:'URW Classico';-inkscape-font-specification:'URW Classico Bold';clip-rule:evenodd;fill:#797676;fill-rule:evenodd;stroke-width:2.95559;stroke-linejoin:round;stroke-miterlimit:2;fill-opacity:1;stroke:#797676;stroke-opacity:1"
         d="m 608.35139,234.19034 c 4.41601,-0.24533 7.72802,-0.368 9.93603,-0.368 2.208,0 5.52001,0.12267 9.93603,0.368 -0.73601,-8.58669 -0.98134,-22.20272 -0.98134,-43.91478 0,-16.43738 0.368,-33.73343 0.98134,-41.21611 -4.41602,0.24533 -7.72803,0.368 -9.93603,0.368 -2.20801,0 -5.52002,-0.12267 -9.93603,-0.368 0.85867,8.83202 0.98134,16.43737 0.98134,41.46144 0,22.20273 -0.12267,30.29875 -0.98134,43.66945 z"
         transform="matrix(0.26458333,0,0,0.26458333,-4.0813514,114.03532)"
         id="path28"
         inkscape:label="I" /><path
         style="font-weight:bold;font-size:122.667px;font-family:'URW Classico';-inkscape-font-specification:'URW Classico Bold';clip-rule:evenodd;fill:#797676;fill-rule:evenodd;stroke-width:2.95559;stroke-linejoin:round;stroke-miterlimit:2;fill-opacity:1;stroke:#797676;stroke-opacity:1"
         d="m 557.07672,157.27813 c -0.12266,8.83203 -0.12266,12.63471 -0.24533,38.02677 -0.12267,17.90939 -0.368,27.10941 -0.85867,38.88544 4.41601,-0.24533 7.72802,-0.368 9.93603,-0.368 2.208,0 5.52001,0.12267 9.93603,0.368 -0.49067,-12.75737 -0.85867,-28.09074 -0.85867,-48.45346 0,-16.80538 0,-19.13605 -0.12267,-23.18406 v -5.27469 h 2.82134 c 6.25602,0 7.36002,0 19.74939,0.98134 -0.24534,-2.20801 -0.368,-3.80268 -0.368,-4.90668 0,-1.104 0.12266,-2.69867 0.368,-4.90668 -17.90938,0.85867 -22.93873,0.98134 -31.28009,0.98134 -8.46402,0 -15.45604,-0.24534 -31.64808,-0.98134 0.24533,2.20801 0.368,3.80268 0.368,4.90668 0,1.104 -0.12267,2.69867 -0.368,4.90668 12.51203,-0.98134 13.49337,-0.98134 19.25872,-0.98134 z"
         transform="matrix(0.26458333,0,0,0.26458333,-4.0813514,114.03532)"
         id="path27"
         inkscape:label="T" /><path
         style="font-weight:bold;font-size:122.667px;font-family:'URW Classico';-inkscape-font-specification:'URW Classico Bold';clip-rule:evenodd;fill:#797676;fill-rule:evenodd;stroke-width:2.95559;stroke-linejoin:round;stroke-miterlimit:2;fill-opacity:1;stroke:#797676;stroke-opacity:1"
         d="m 521.38064,165.49682 c 1.472,-6.01068 1.71733,-6.86935 3.92534,-12.2667 -5.88802,-3.80267 -12.02137,-5.52001 -19.50405,-5.52001 -7.48269,0 -14.22938,2.208 -19.25872,6.37868 -5.88802,4.66135 -8.70936,11.28537 -8.70936,19.74939 0,6.99202 2.08534,12.6347 6.01068,16.56004 3.18935,3.31201 5.52002,4.78402 14.96538,9.56803 12.6347,6.62402 15.45604,9.32269 15.45604,15.33337 0,7.48269 -5.88802,12.51204 -14.59737,12.51204 -3.92535,0 -7.23736,-1.104 -10.18136,-3.31201 -3.18935,-2.45334 -4.41602,-4.29335 -6.01069,-9.44536 h -2.94401 c -0.85866,7.11469 -1.104,8.21869 -3.43467,15.21071 7.23735,3.80268 13.3707,5.27468 21.22139,5.27468 17.90938,0 30.66675,-11.5307 30.66675,-27.72274 0,-5.52002 -1.59467,-10.7947 -4.53868,-14.59738 -2.82134,-3.68001 -6.62402,-6.25601 -15.94671,-10.91736 -12.51203,-6.13335 -15.94671,-9.56802 -15.94671,-15.82404 0,-6.37868 5.15201,-11.04003 12.51203,-11.04003 4.04802,0 7.97336,1.472 10.4267,3.80268 1.472,1.34933 2.45334,3.06667 3.68001,6.25601 z"
         transform="matrix(0.26458333,0,0,0.26458333,-4.0813514,114.03532)"
         id="path26"
         inkscape:label="S" /><path
         style="font-weight:bold;font-size:122.667px;font-family:'URW Classico';-inkscape-font-specification:'URW Classico Bold';clip-rule:evenodd;fill:#797676;fill-rule:evenodd;stroke-width:2.95559;stroke-linejoin:round;stroke-miterlimit:2;fill-opacity:1;stroke:#797676;stroke-opacity:1"
         d="m 422.8791,147.71011 c -14.22937,0 -25.14674,3.80268 -33.97876,11.8987 -8.70936,7.97335 -13.73871,19.87205 -13.73871,32.75209 0,14.22937 4.41602,24.65606 13.86138,32.75208 8.34135,6.99202 18.76805,10.4267 31.89342,10.4267 13.61603,0 24.41073,-3.92534 33.24275,-11.8987 9.20003,-8.58669 13.73871,-19.50405 13.73871,-33.48809 0,-13.7387 -4.41602,-24.1654 -13.61604,-32.01609 -8.34136,-7.23735 -18.15472,-10.42669 -31.40275,-10.42669 z m -0.736,7.72802 c 16.19204,0 25.76007,13.0027 25.76007,35.32809 0,22.20273 -10.67203,37.04544 -26.74141,37.04544 -8.21869,0 -16.06938,-4.29335 -20.48539,-11.28537 -3.80268,-6.01068 -5.39735,-13.0027 -5.39735,-23.92006 0,-23.0614 10.18136,-37.1681 26.86408,-37.1681 z"
         transform="matrix(0.26458333,0,0,0.26458333,-4.0813514,114.03532)"
         id="path25"
         inkscape:label="O" /><path
         style="font-weight:bold;font-size:122.667px;font-family:'URW Classico';-inkscape-font-specification:'URW Classico Bold';clip-rule:evenodd;fill:#797676;fill-rule:evenodd;stroke-width:2.95559;stroke-linejoin:round;stroke-miterlimit:2;fill-opacity:1;stroke:#797676;stroke-opacity:1"
         d="m 285.49204,234.19034 c 4.41601,-0.24533 7.72802,-0.368 9.93603,-0.368 2.208,0 5.52001,0.12267 9.93602,0.368 -0.736,-11.8987 -0.98133,-17.54138 -0.98133,-27.60007 0,-3.55735 0,-3.55735 0.12267,-12.6347 6.37868,-0.73601 10.42669,-0.98134 17.05071,-0.98134 6.74668,0 11.28536,0.24533 20.73072,0.98134 l -0.12267,9.93602 -0.24533,13.98404 c -0.12267,4.17068 -0.24533,7.85069 -0.61333,16.31471 4.41601,-0.24533 7.72802,-0.368 9.93602,-0.368 2.20801,0 5.52002,0.12267 9.93603,0.368 -0.736,-12.88003 -0.98134,-26.25074 -0.98134,-47.22679 0,-19.62672 0.24534,-27.10941 0.98134,-37.9041 -4.41601,0.24533 -7.72802,0.368 -9.93603,0.368 -2.208,0 -5.52001,-0.12267 -9.93602,-0.368 0.736,8.58669 0.85866,11.40803 0.98133,33.61075 -8.09602,0.85867 -11.77603,0.98134 -18.52272,0.98134 -6.86935,0 -10.79469,-0.24534 -19.38138,-0.98134 0.12267,-15.70137 0.24533,-22.81606 0.98133,-33.61075 -4.41601,0.24533 -7.72802,0.368 -9.93602,0.368 -2.20801,0 -5.52002,-0.12267 -9.93603,-0.368 0.736,10.05869 0.98134,18.76805 0.98134,42.19744 z"
         transform="matrix(0.26458333,0,0,0.26458333,-4.0813514,114.03532)"
         id="text39"
         inkscape:label="H" /></g></g></svg>
