<svg xmlns="http://www.w3.org/2000/svg" viewBox="-2 0 104 100" width="100" height="100">
  <!-- Primary (Head) - fill:#e67919 -->
  <g style="fill:#e67919">
    <path d="m 50.078,80.683 c 0,2.423 5.054,4.591 6.091,4.858 1.036,0.268 0.719,1.449 3.487,0.873 2.767,-0.577 5.756,-3.233 8.605,-6.897 2.849,-3.664 0.764,-6.293 -1.361,-9.082 -2.125,-2.789 -6.731,-6.023 -7.244,-12.28 -0.404,-4.921 3.644,-5.108 5.34,-5.279 1.697,-0.171 4.501,1.974 5.658,1.726 1.106,-0.236 5.764,4.232 6.275,2.632 -0.287,-1.936 0.909,-2.97 2.519,-3.034 1.609,-0.064 2.175,2.573 2.908,3.955 0.903,1.706 1.642,0.505 1.79,-0.926 0.392,-3.814 -0.886,-7.736 -0.235,-10.257 0.366,-1.417 1.371,-1.586 2.881,-3.241 3.978,-4.359 4.026,-10.816 3.131,-13.904 1.031,-1.253 2.394,-1.256 2.598,-8.289 C 92.726,14.505 87.451,8.531 86.038,7.721 84.624,6.91 80.605,7.633 79.555,8.51 78.506,9.387 66.486,19.391 64.996,21.1 63.507,22.81 62.752,23.616 63.556,27.206 60.728,24.559 56.073,22.692 50.078,23.64 44.083,22.692 39.427,24.559 36.6,27.206 37.403,23.616 36.649,22.81 35.159,21.1 33.669,19.391 21.65,9.387 20.6,8.51 19.551,7.633 15.532,6.91 14.118,7.721 12.704,8.531 7.43,14.505 7.634,21.538 c 0.204,7.033 1.567,7.036 2.599,8.289 -0.896,3.088 -0.848,9.545 3.13,13.904 1.511,1.655 2.515,1.824 2.882,3.241 0.651,2.521 -0.628,6.443 -0.235,10.257 0.147,1.431 0.886,2.632 1.79,0.926 0.732,-1.382 1.299,-4.019 2.908,-3.955 1.609,0.064 2.806,1.098 2.519,3.034 0.51,1.6 5.169,-2.868 6.275,-2.632 1.157,0.248 3.96,-1.897 5.657,-1.726 1.697,0.171 5.745,0.358 5.341,5.279 -0.513,6.257 -5.119,9.491 -7.244,12.28 -2.126,2.789 -4.21,5.418 -1.362,9.082 2.849,3.664 5.838,6.32 8.606,6.897 2.768,0.576 2.451,-0.605 3.487,-0.873 1.036,-0.267 6.091,-2.435 6.091,-4.858 0,-2.424 0,-2.424 0,0 z"/>
  </g>
  <!-- Secondary (Chin + Cheeks) - fill:#868383 -->
  <g transform="matrix(-1,0,0,1,100.127,0)" style="fill:#868383">
    <path d="m 50,86.57 c 2.004,0 6.013,-1.029 6.013,-1.029 1.036,0.268 0.719,1.449 3.487,0.873 0,0 1.417,-0.227 1.543,0.686 0.127,0.913 -0.788,2.934 -3.286,4.4 -2.499,1.466 -5.115,1.372 -7.757,1.401 -2.642,-0.029 -5.258,0.065 -7.757,-1.401 -2.498,-1.466 -3.413,-3.487 -3.286,-4.4 0.126,-0.913 1.543,-0.686 1.543,-0.686 2.768,0.576 2.451,-0.605 3.487,-0.873 0,0 4.009,1.029 6.013,1.029 z" transform="matrix(-1,0,0,1,100.127,0)"/>
    <path d="m 68.261,79.517 c 2.849,-3.664 0.764,-6.293 -1.361,-9.082 -2.125,-2.789 -6.731,-6.023 -7.244,-12.28 -0.404,-4.921 3.644,-5.108 5.34,-5.279 1.697,-0.171 4.501,1.974 5.658,1.726 1.106,-0.236 5.764,4.232 6.275,2.632 -0.287,-1.936 0.909,-2.97 2.519,-3.034 1.609,-0.064 2.205,2.477 2.908,3.955 1.968,4.138 -0.509,7.592 -2.583,10.737 -2.349,3.56 -11.512,10.625 -11.512,10.625 z"/>
    <path d="m 68.261,79.517 c 2.849,-3.664 0.764,-6.293 -1.361,-9.082 -2.125,-2.789 -6.731,-6.023 -7.244,-12.28 -0.404,-4.921 3.644,-5.108 5.34,-5.279 1.697,-0.171 4.501,1.974 5.658,1.726 1.106,-0.236 5.764,4.232 6.275,2.632 -0.287,-1.936 0.909,-2.97 2.519,-3.034 1.609,-0.064 2.205,2.477 2.908,3.955 1.968,4.138 -0.509,7.592 -2.583,10.737 -2.349,3.56 -11.512,10.625 -11.512,10.625 z" transform="matrix(-1,0,0,1,100.127,0)"/>
  </g>
  <!-- Features (Tongue + Eyes) -->
  <g>
    <path d="m 43.987,85.541 c 1.036,-0.267 6.091,-2.435 6.091,-4.858 0,-2.424 0,-2.424 0,0 0,2.423 5.054,4.591 6.091,4.858 0,0 -4.139,1.029 -6.169,1.029 -2.004,0 -6.013,-1.029 -6.013,-1.029 z" style="fill:#e8a3ec"/>
    <g style="fill:#a9e619">
      <path d="m 60.195,60.954 c -0.268,-0.862 -0.457,-1.791 -0.539,-2.799 -0.404,-4.921 3.644,-5.108 5.34,-5.279 1.697,-0.171 4.501,1.974 5.658,1.726 0,0 -0.687,2.011 -0.25,3.553 0.438,1.541 -0.363,5.196 -5.002,5.196 -4.64,0 -5.207,-2.397 -5.207,-2.397 z" transform="matrix(-1,0,0,1,100.127,0)"/>
      <path d="m 60.195,60.954 c -0.268,-0.862 -0.457,-1.791 -0.539,-2.799 -0.404,-4.921 3.644,-5.108 5.34,-5.279 1.697,-0.171 4.501,1.974 5.658,1.726 0,0 -0.687,2.011 -0.25,3.553 0.438,1.541 -0.363,5.196 -5.002,5.196 -4.64,0 -5.207,-2.397 -5.207,-2.397 z"/>
    </g>
  </g>
  <!-- Outline - fill:black, translated like in original -->
  <path transform="translate(-24.999982,-7.8548614)" style="fill:#000000;fill-rule:nonzero" d="m 114.4,17.155 c -3.4,-4.4 -6.7,-3.3 -8.5,-2.7 -0.3,0.1 -0.5,0.2 -0.8,0.2 -1.1,0.2 -4,2.3 -15.1,12.4 l -0.6,0.5 c -1.7,1.5 -2.4,3.1 -2.7,4.3 -1.4,-0.7 -3.7,-1.4 -7,-1.7 -1.9,-0.2 -4.1,-0.1 -4.8,0 -0.7,0 -2.9,-0.2 -4.8,0 -3.3,0.3 -5.6,1 -7,1.7 -0.3,-1.3 -1,-2.8 -2.7,-4.3 l -0.6,-0.5 c -10.9,-10.1 -13.8,-12.2 -14.9,-12.4 -0.2,0 -0.5,-0.1 -0.8,-0.2 -1.8,-0.6 -5.1,-1.7 -8.5,2.7 -3.6,4.7 -6.3,15 -2.5,19.6 0.4,0.4 0.7,0.8 0.9,1.1 l -0.1,0.3 c -0.1,0.2 -1.7,5 1.4,11 1.3,2.6 2.6,3.8 3.6,4.7 1.1,1.1 1.6,1.5 1.5,3.6 -0.2,3.1 -0.7,5.2 -0.7,5.2 v 0.4 c 0,0.3 0.2,8.4 5,14.4 4.4,5.5 7.3,8.6 10.9,10.2 1.3,2.4 3.6,4.9 6.2,6.5 0.1,0.1 0.3,0.2 0.6,0.4 0.9,2.9 3.6,7.3 9,7.3 h 3 c 0,0 1.7,0 4.7,-0.1 5.5,-0.1 8.2,-4.5 9,-7.3 0.2,-0.1 0.4,-0.3 0.5,-0.3 2.6,-1.5 5,-4.1 6.3,-6.5 3.6,-1.6 6.5,-4.7 10.9,-10.2 4.8,-6 5,-14 5,-14.4 v -0.4 c 0,0 -0.5,-1.8 -0.7,-5.2 -0.1,-2.1 0.3,-2.5 1.4,-3.6 0.9,-0.9 2.2,-2.2 3.6,-4.7 3.1,-6 1.4,-10.8 1.4,-11 l -0.5,-0.3 c 0.2,-0.3 0.5,-0.7 0.9,-1.2 3.8,-4.5 1.1,-14.8 -2.5,-19.5 z m -35.6,82.1 c -2.9,0.1 -4.6,0.1 -4.6,0.1 -0.6,-0.1 -1.6,-0.1 -3,-0.1 -3,0 -4.7,-1.8 -5.7,-3.4 h 0.4 c 0.5,0 1,-0.1 1.6,-0.3 0.5,-0.2 0.9,-0.4 1.4,-0.6 1,0.5 3.1,1.2 6.2,1 h 1.1 c 2.5,0 4.2,-0.6 5.1,-1 0.5,0.2 1,0.4 1.4,0.6 0.6,0.3 1.3,0.3 1.9,0.3 -1.1,1.6 -2.8,3.3 -5.8,3.4 z m -3.8,-8 c 0.3,0.4 0.6,0.7 0.9,0.9 0.5,0.3 1.2,0.7 1.9,1.1 -0.8,0.1 -1.7,0.2 -2.7,0.1 h -0.2 c -1.1,0.1 -2,0 -2.7,-0.1 0.7,-0.4 1.4,-0.8 1.9,-1.1 0.3,-0.2 0.6,-0.5 0.9,-0.9 z m 40,-56.1 c -1.6,1.9 -2.6,3.4 -1.7,4.5 0.1,0.1 0.3,0.4 0.7,0.5 0.2,1.5 0.4,4.5 -1.4,8 -1.1,2.2 -2.2,3.2 -3.1,4.1 -1.3,1.2 -2.4,2.3 -2.2,5.6 0.2,3 0.6,4.9 0.7,5.5 -0.8,-0.9 -1.6,-1.7 -2.2,-2.5 -1.6,-2.2 -2.5,-0.6 -4.9,1.1 -2.5,1.6 0.2,2.6 -2.8,0.7 -1,-0.6 -2.1,-1 -3.1,-1.2 -0.4,-0.5 -0.8,-0.9 -1.3,-1.2 l -0.3,-0.1 c -0.3,-0.1 -6.6,-2 -9.3,2.3 -0.8,0.7 -2.8,3 -0.2,7.8 1,1.8 2.7,3.8 4.3,5.7 0.8,1 1.7,2 2.4,3 -0.5,-0.2 -1.1,-0.4 -1.7,-0.4 -4.1,-0.5 -3.4,2.4 -3.4,2.4 0.5,1.9 1.2,1.6 1.9,1 0.7,-0.6 2.5,-0.2 4.6,0 0.2,0 0.4,0 0.5,-0.1 0.4,0.8 0.6,1.5 0.7,2.2 -0.9,0.1 -2.4,0.5 -4.3,0.4 -2.9,-0.1 -4.7,0.9 -4.7,0.9 0.6,2.9 3.6,0.6 5.9,0.9 1.1,0.2 2.1,0 2.8,-0.4 -0.9,2 -3.1,4.7 -5.8,6.2 l -0.2,0.1 c 0,0 -1.8,1.6 -3.2,1 -2.1,-0.9 -4.8,-2.3 -6.2,-3.2 -0.5,-0.3 -0.8,-1.4 -1,-2.4 v -0.1 c 1.2,0.2 2.7,0.2 3.3,-0.3 1,-0.7 1.3,-2.7 1.3,-2.7 0,0 -0.9,1 -1.4,0 -0.6,-1 0.4,-3.1 0.9,-3.1 0.4,0 2.1,0 1.1,-2 -1,-1.9 -5.7,0 -6.4,0.2 -0.7,-0.3 -5.5,-2.1 -6.4,-0.2 -1,2 0.7,2 1.1,2 0.4,0 1.4,2.1 0.9,3.1 -0.6,1 -1.4,0 -1.4,0 0,0 0.2,1.9 1.3,2.7 0.6,0.5 2.2,0.5 3.3,0.3 v 0.1 c -0.2,1 -0.5,2.1 -1,2.4 -1.4,0.9 -4.1,2.3 -6.2,3.2 -1.1,0.5 -2.8,-0.7 -3.3,-1.1 l -0.6,-0.1 c -2.7,-1.6 -4.9,-4.2 -5.7,-6.2 0.7,0.4 1.6,0.5 2.8,0.4 2.3,-0.3 5.3,2 5.9,-0.9 0,0 -1.8,-1 -4.7,-0.9 -1.9,0.1 -3.4,-0.4 -4.3,-0.4 0.1,-0.7 0.3,-1.4 0.7,-2.2 0.2,0 0.3,0.1 0.5,0.1 2.1,-0.1 3.9,-0.6 4.6,0 0.7,0.6 1.4,0.9 1.9,-1 0,0 0.7,-2.8 -3.4,-2.4 -0.7,0.1 -1.2,0.2 -1.7,0.4 0.8,-1 1.6,-2 2.4,-3 1.6,-1.9 3.3,-3.9 4.3,-5.7 2.6,-4.8 0.6,-7.1 -0.2,-7.8 -2.7,-4.4 -9.1,-2.4 -9.3,-2.3 l -0.3,0.1 c -0.5,0.3 -0.9,0.7 -1.3,1.2 -1,0.2 -2.1,0.5 -3.1,1.2 -3,1.9 -0.4,0.9 -2.8,-0.7 -2.5,-1.6 -3.3,-3.3 -4.9,-1.1 -0.6,0.8 -1.4,1.7 -2.2,2.5 0.1,-0.6 0.6,-2.6 0.7,-5.5 0.2,-3.3 -0.9,-4.3 -2.2,-5.6 -0.9,-0.8 -1.9,-1.9 -3.1,-4.1 -1.8,-3.5 -1.7,-6.5 -1.4,-8 0.4,-0.1 0.6,-0.3 0.7,-0.5 0.9,-1.1 -0.1,-2.5 -1.7,-4.5 -2.7,-3.3 -0.8,-12 2.6,-16.4 2.3,-3 4.1,-2.4 5.7,-1.8 0.4,0.1 0.8,0.3 1,0.3 0.7,0.3 3.7,2.5 13.9,11.8 l 0.6,0.5 c 2.5,2.2 1.9,4.3 1.9,4.4 l -1.5,5 3.6,-3.7 c 0,0 1,-0.9 3.5,-1.7 -0.1,0.9 -0.5,2.1 -1.4,3.8 -2.3,4.4 -5.6,11.4 -4.4,15.2 1.2,3.8 4,6.3 4,6.3 0,0 2.7,-1.2 1.6,-2.6 -1.2,-1.5 -0.8,-4.4 -2.4,-6.4 -1.6,-2 -0.2,-2 1.4,-5.5 1.4,-3.1 4.9,-8.9 4.6,-11.3 0.2,0 0.5,-0.1 0.7,-0.1 1.7,-0.2 4,0 4.5,0 h 0.2 c 0.5,0 2.7,-0.1 4.5,0 0.2,0 0.5,0 0.7,0.1 -0.3,2.4 3.2,8.2 4.6,11.3 1.6,3.5 3,3.5 1.4,5.5 -1.6,2 -1.2,5 -2.4,6.4 -1.2,1.5 1.6,2.6 1.6,2.6 0,0 2.8,-2.5 4,-6.3 1.2,-3.8 -2.1,-10.8 -4.4,-15.2 -0.9,-1.7 -1.3,-2.9 -1.4,-3.8 2.5,0.7 3.4,1.6 3.4,1.6 l 3.8,4.2 -1.8,-5.4 c 0,0 -0.6,-2.2 1.9,-4.4 l 0.6,-0.5 c 10.1,-9.3 13.1,-11.5 13.8,-11.8 0.3,-0.1 0.7,-0.2 1.1,-0.3 1.6,-0.5 3.4,-1.1 5.7,1.8 3.4,4.4 5.2,13.2 2.6,16.5 z M 56.06,79.387 c -0.816,0.067 -0.662,-0.238 -1.455,-0.534 -0.559,-0.209 -0.977,-0.04 -1.18,0.437 -0.193,0.451 -0.091,1.02 0.335,1.347 0.412,0.317 0.82,0.562 1.254,0.75 -0.388,0.934 -0.614,1.859 -0.614,2.768 -2.4,-1.7 -4.7,-4.3 -7.9,-8.3 -2,-2.5 -3.1,-5.4 -3.7,-7.8 0.5,-0.3 1,-0.9 1.3,-2 0.7,-3.1 3.3,-2.4 2.6,-0.7 -0.7,1.7 0.4,3.3 2.7,1.5 1.1,-0.9 2.7,-2.2 4.4,-3.3 -0.6,1.5 -0.7,3.2 -0.3,4.7 0.7,2.6 2.7,4.1 5.6,4.3 h 0.6 c 0.7,0 1.3,-0.1 1.9,-0.2 -0.5,0.6 -1,1.2 -1.6,1.9 -1.441,1.698 -2.881,3.422 -3.94,5.132 z m 39.02,2.026 c 0.457,-0.191 0.884,-0.444 1.316,-0.776 0.426,-0.327 0.527,-0.896 0.335,-1.347 -0.204,-0.477 -0.621,-0.646 -1.181,-0.437 -0.823,0.308 -0.625,0.624 -1.552,0.525 -1.072,-1.707 -2.511,-3.428 -3.898,-5.123 -0.5,-0.6 -1.1,-1.3 -1.5,-1.9 0.6,0.1 1.2,0.2 1.9,0.2 h 0.6 c 2.9,-0.1 4.9,-1.7 5.6,-4.3 0.4,-1.5 0.2,-3.2 -0.3,-4.7 1.7,1.1 3.3,2.5 4.4,3.3 2.2,1.7 3.4,0.1 2.7,-1.5 -0.7,-1.7 1.9,-2.4 2.6,0.7 0.2,1.1 0.7,1.7 1.3,2 -0.8,2.4 -1.9,5.3 -3.9,7.8 -3.2,4 -5.5,6.6 -7.8,8.3 0,-0.901 -0.23,-1.817 -0.62,-2.742 z M 89.8,68.755 c 0.9,0 1.6,-1.6 1.6,-3.5 0,-1.5 -0.4,-2.7 -1,-3.2 0.9,0.1 1.7,0.2 2,0.3 1.3,0.9 2.1,3.4 1.7,5.2 -0.4,1.5 -1.5,2.3 -3.2,2.4 -2.4,0.1 -4.2,-0.6 -5,-1.9 -0.8,-1.2 -0.7,-2.7 0.1,-4.2 0.7,-1.2 1.9,-1.7 3.1,-1.8 -0.6,0.5 -1,1.8 -1,3.2 0.1,2 0.8,3.5 1.7,3.5 z m -29.6,0 c 0.9,0 1.6,-1.6 1.6,-3.5 0,-1.5 -0.4,-2.7 -1,-3.2 1.2,0.1 2.5,0.5 3.1,1.8 0.8,1.5 0.9,3.1 0.2,4.2 -0.8,1.3 -2.6,2 -5,1.9 -1.7,-0.1 -2.8,-0.9 -3.2,-2.4 -0.5,-1.8 0.3,-4.3 1.7,-5.2 0.3,-0.1 1.1,-0.3 2,-0.3 -0.6,0.5 -1,1.8 -1,3.2 0,2 0.7,3.5 1.6,3.5 z"/>
</svg>
